<?xml version="1.0" encoding="utf-8"?>
<!-- Generator: Adobe Illustrator 15.0.0, SVG Export Plug-In . SVG Version: 6.00 Build 0)  -->
<!DOCTYPE svg PUBLIC "-//W3C//DTD SVG 1.1//EN" "http://www.w3.org/Graphics/SVG/1.1/DTD/svg11.dtd">
<svg version="1.1"  xmlns="http://www.w3.org/2000/svg" xmlns:xlink="http://www.w3.org/1999/xlink" x="0px" y="0px"
	 width="48px" height="48px" viewBox="0 0 48 48" enable-background="new 0 0 48 48" xml:space="preserve">
<polygon fill="#4DB6AC" points="40,45 8,45 8,3 30,3 40,13 "/>
<polygon fill="#E0F2F1" points="38.5,14 29,14 29,4.5 "/>
<g>
	<path fill="#00695C" d="M19.932,29.685c-0.05,1.135-0.369,1.994-0.957,2.577s-1.417,0.875-2.488,0.875
		c-1.125,0-1.988-0.37-2.587-1.11C13.3,31.285,13,30.229,13,28.857v-1.675c0-1.367,0.31-2.421,0.93-3.162
		c0.62-0.74,1.481-1.11,2.584-1.11c1.084,0,1.908,0.303,2.471,0.909s0.883,1.477,0.96,2.611h-2.017
		c-0.018-0.702-0.126-1.186-0.325-1.453c-0.198-0.266-0.562-0.399-1.09-0.399c-0.538,0-0.918,0.188-1.142,0.563
		c-0.223,0.377-0.342,0.995-0.355,1.856v1.88c0,0.989,0.11,1.668,0.332,2.037s0.601,0.554,1.138,0.554
		c0.529,0,0.893-0.129,1.094-0.386c0.201-0.258,0.314-0.724,0.342-1.398H19.932z"/>
	<path fill="#00695C" d="M25.373,30.389c0-0.405-0.104-0.712-0.311-0.919c-0.208-0.208-0.585-0.423-1.132-0.646
		c-0.998-0.378-1.716-0.821-2.153-1.33c-0.438-0.508-0.656-1.108-0.656-1.801c0-0.839,0.297-1.512,0.892-2.02
		c0.595-0.509,1.35-0.763,2.266-0.763c0.611,0,1.155,0.129,1.634,0.386c0.479,0.258,0.847,0.621,1.104,1.091
		c0.257,0.47,0.386,1.003,0.386,1.6H25.4c0-0.465-0.1-0.819-0.297-1.063c-0.199-0.243-0.485-0.365-0.858-0.365
		c-0.351,0-0.625,0.104-0.82,0.311c-0.196,0.208-0.294,0.487-0.294,0.838c0,0.273,0.109,0.521,0.328,0.742
		c0.219,0.221,0.606,0.449,1.162,0.687c0.971,0.351,1.676,0.781,2.115,1.292c0.44,0.511,0.66,1.16,0.66,1.948
		c0,0.866-0.275,1.543-0.827,2.03s-1.302,0.731-2.249,0.731c-0.643,0-1.228-0.132-1.757-0.396s-0.942-0.643-1.241-1.135
		s-0.448-1.073-0.448-1.743h2.017c0,0.574,0.112,0.991,0.335,1.251s0.588,0.39,1.094,0.39
		C25.021,31.503,25.373,31.132,25.373,30.389z"/>
	<path fill="#00695C" d="M32.934,30.389c0-0.405-0.104-0.712-0.311-0.919c-0.208-0.208-0.585-0.423-1.132-0.646
		c-0.998-0.378-1.716-0.821-2.153-1.33c-0.438-0.508-0.656-1.108-0.656-1.801c0-0.839,0.297-1.512,0.893-2.02
		c0.594-0.509,1.35-0.763,2.266-0.763c0.611,0,1.155,0.129,1.634,0.386c0.479,0.258,0.847,0.621,1.104,1.091
		c0.257,0.47,0.386,1.003,0.386,1.6h-2.003c0-0.465-0.1-0.819-0.297-1.063c-0.199-0.243-0.484-0.365-0.858-0.365
		c-0.351,0-0.624,0.104-0.82,0.311c-0.196,0.208-0.294,0.487-0.294,0.838c0,0.273,0.109,0.521,0.328,0.742
		c0.219,0.221,0.605,0.449,1.162,0.687c0.971,0.351,1.676,0.781,2.115,1.292c0.44,0.511,0.66,1.16,0.66,1.948
		c0,0.866-0.275,1.543-0.827,2.03s-1.302,0.731-2.249,0.731c-0.643,0-1.229-0.132-1.757-0.396s-0.942-0.643-1.241-1.135
		c-0.298-0.492-0.447-1.073-0.447-1.743h2.017c0,0.574,0.112,0.991,0.335,1.251s0.588,0.39,1.094,0.39
		C32.582,31.503,32.934,31.132,32.934,30.389z"/>
</g>
</svg>
