<?xml version="1.0" encoding="iso-8859-1"?>
<!-- Generator: Adobe Illustrator 19.1.1, SVG Export Plug-In . SVG Version: 6.00 Build 0)  -->
<svg version="1.1"  xmlns="http://www.w3.org/2000/svg" xmlns:xlink="http://www.w3.org/1999/xlink" x="0px" y="0px"
	 viewBox="0 0 48 48" style="enable-background:new 0 0 48 48;" xml:space="preserve">
<path style="fill:#4DB6AC;" d="M0,16c0-2.209,1.791-4,4-4h40c2.209,0,4,1.791,4,4v16c0,2.209-1.791,4-4,4H4c-2.209,0-4-1.791-4-4V16
	z"/>
<path style="fill:#FFFFFF;" d="M20.99,19H23v6.891c0,0.965-0.269,1.742-0.807,2.324c-0.538,0.581-1.23,0.875-2.078,0.875
	c-0.912,0-1.62-0.271-2.126-0.813c-0.506-0.543-0.759-1.297-0.759-2.264h2.017c0,0.94,0.289,1.407,0.868,1.407
	c0.583,0,0.875-0.542,0.875-1.626V19z"/>
<path style="fill:#FFFFFF;" d="M28.783,26.342c0-0.404-0.104-0.713-0.311-0.921c-0.207-0.206-0.584-0.421-1.131-0.644
	c-0.998-0.379-1.716-0.822-2.153-1.33c-0.438-0.51-0.656-1.11-0.656-1.803c0-0.838,0.297-1.512,0.892-2.02
	c0.595-0.508,1.351-0.762,2.267-0.762c0.61,0,1.155,0.129,1.634,0.387c0.479,0.258,0.847,0.621,1.104,1.09
	c0.258,0.469,0.387,1.004,0.387,1.6h-2.003c0-0.465-0.1-0.818-0.298-1.063c-0.198-0.244-0.484-0.365-0.857-0.365
	c-0.352,0-0.625,0.101-0.82,0.311c-0.196,0.207-0.294,0.486-0.294,0.838c0,0.273,0.109,0.519,0.328,0.74
	c0.219,0.221,0.605,0.451,1.162,0.687c0.971,0.351,1.676,0.782,2.115,1.292c0.44,0.512,0.66,1.16,0.66,1.949
	c0,0.867-0.276,1.543-0.827,2.031c-0.552,0.486-1.302,0.73-2.249,0.73c-0.643,0-1.229-0.133-1.757-0.396
	c-0.529-0.264-0.942-0.643-1.241-1.135c-0.298-0.492-0.447-1.074-0.447-1.742h2.017c0,0.574,0.111,0.99,0.335,1.25
	c0.223,0.26,0.588,0.391,1.094,0.391C28.432,27.457,28.783,27.086,28.783,26.342z"/>
</svg>
