<?xml version="1.0" encoding="utf-8"?>
<!-- Generator: Adobe Illustrator 15.0.0, SVG Export Plug-In . SVG Version: 6.00 Build 0)  -->
<!DOCTYPE svg PUBLIC "-//W3C//DTD SVG 1.1//EN" "http://www.w3.org/Graphics/SVG/1.1/DTD/svg11.dtd">
<svg version="1.1"  xmlns="http://www.w3.org/2000/svg" xmlns:xlink="http://www.w3.org/1999/xlink" x="0px" y="0px"
	 width="48px" height="48px" viewBox="0 0 48 48" enable-background="new 0 0 48 48" xml:space="preserve">
<polygon fill="#3F51B5" points="40,45 8,45 8,3 30,3 40,13 "/>
<polygon fill="#E8EAF6" points="38.5,14 29,14 29,4.5 "/>
<g>
	<path fill="#E8EAF6" d="M15.476,29.5V33h-2.01v-9.953h3.391c0.984,0,1.77,0.306,2.355,0.916s0.878,1.403,0.878,2.379
		s-0.29,1.745-0.868,2.311S17.841,29.5,16.816,29.5H15.476z M15.476,27.825h1.381c0.383,0,0.679-0.125,0.889-0.376
		s0.314-0.615,0.314-1.094c0-0.497-0.107-0.892-0.321-1.187c-0.214-0.293-0.501-0.442-0.861-0.447h-1.401V27.825z"/>
	<path fill="#E8EAF6" d="M25.635,30.389c0-0.405-0.104-0.712-0.312-0.919c-0.208-0.208-0.584-0.423-1.131-0.646
		c-0.998-0.378-1.716-0.821-2.153-1.33c-0.438-0.508-0.656-1.108-0.656-1.801c0-0.839,0.297-1.512,0.892-2.02
		c0.595-0.509,1.35-0.763,2.266-0.763c0.611,0,1.155,0.129,1.633,0.386c0.479,0.258,0.848,0.621,1.104,1.091s0.386,1.003,0.386,1.6
		h-2.002c0-0.465-0.1-0.819-0.298-1.063c-0.198-0.243-0.484-0.365-0.858-0.365c-0.351,0-0.625,0.104-0.82,0.311
		c-0.196,0.208-0.294,0.487-0.294,0.838c0,0.273,0.109,0.521,0.328,0.742c0.219,0.221,0.606,0.449,1.162,0.687
		c0.971,0.351,1.676,0.781,2.116,1.292s0.66,1.16,0.66,1.948c0,0.866-0.276,1.543-0.828,2.03c-0.551,0.487-1.301,0.731-2.249,0.731
		c-0.643,0-1.228-0.132-1.757-0.396s-0.942-0.643-1.241-1.135s-0.448-1.073-0.448-1.743h2.017c0,0.574,0.112,0.991,0.335,1.251
		s0.588,0.39,1.094,0.39C25.283,31.503,25.635,31.132,25.635,30.389z"/>
	<path fill="#E8EAF6" d="M28.99,33v-9.953h2.633c1.162,0,2.088,0.369,2.778,1.107s1.042,1.75,1.056,3.035v1.613
		c0,1.308-0.345,2.335-1.035,3.079C33.731,32.628,32.78,33,31.568,33H28.99z M31,24.722v6.61h0.602c0.67,0,1.143-0.177,1.416-0.53
		c0.273-0.353,0.416-0.962,0.43-1.828v-1.729c0-0.93-0.129-1.578-0.389-1.944c-0.26-0.367-0.702-0.56-1.326-0.578H31z"/>
</g>
</svg>
