<?xml version="1.0" encoding="utf-8"?>
<!-- Generator: Adobe Illustrator 15.0.0, SVG Export Plug-In . SVG Version: 6.00 Build 0)  -->
<!DOCTYPE svg PUBLIC "-//W3C//DTD SVG 1.1//EN" "http://www.w3.org/Graphics/SVG/1.1/DTD/svg11.dtd">
<svg version="1.1"  xmlns="http://www.w3.org/2000/svg" xmlns:xlink="http://www.w3.org/1999/xlink" x="0px" y="0px"
	 width="48px" height="48px" viewBox="0 0 48 48" enable-background="new 0 0 48 48" xml:space="preserve">
<polygon fill="#BA68C8" points="41,45 9,45 9,3 31,3 41,13 "/>
<polygon fill="#F3E5F5" points="39.5,14 30,14 30,4.5 "/>
<g>
	<path fill="#4A148C" d="M21.246,24.722h-2.461V33h-2.017v-8.278h-2.42v-1.675h6.897V24.722z"/>
	<path fill="#4A148C" d="M25.519,26.465l1.34-3.418h2.304l-2.338,4.936L29.217,33h-2.331l-1.367-3.479L24.158,33h-2.331l2.393-5.018
		l-2.345-4.936h2.304L25.519,26.465z"/>
	<path fill="#4A148C" d="M36.682,24.722h-2.461V33h-2.017v-8.278h-2.42v-1.675h6.897V24.722z"/>
</g>
</svg>
