<?xml version="1.0" encoding="iso-8859-1"?>
<!-- Generator: Adobe Illustrator 22.1.0, SVG Export Plug-In . SVG Version: 6.00 Build 0)  -->
<svg version="1.1" id="Layer_1" xmlns="http://www.w3.org/2000/svg" xmlns:xlink="http://www.w3.org/1999/xlink" x="0px" y="0px"
	 viewBox="0 0 48 48" style="enable-background:new 0 0 48 48;" xml:space="preserve">
<polygon style="fill:#4DB6AC;" points="40,45 8,45 8,3 30,3 40,13 "/>
<polygon style="fill:#E0F2F1;" points="38.5,14 29,14 29,4.5 "/>
<g>
	<path style="fill:#00695C;" d="M14.892,26.465l1.34-3.418h2.304l-2.338,4.936L18.59,33h-2.331l-1.367-3.479L13.532,33h-2.331
		l2.393-5.018l-2.345-4.936h2.304L14.892,26.465z"/>
	<path style="fill:#00695C;" d="M22.934,23.047l1.88,7.198l1.873-7.198h2.625V33h-2.017v-2.693l0.185-4.149L25.491,33h-1.367
		l-1.989-6.843l0.185,4.149V33h-2.01v-9.953H22.934z"/>
	<path style="fill:#00695C;" d="M33.635,31.332h3.527V33h-5.537v-9.953h2.01V31.332z"/>
</g>
</svg>
