<?xml version="1.0" encoding="iso-8859-1"?>
<!-- Generator: Adobe Illustrator 22.1.0, SVG Export Plug-In . SVG Version: 6.00 Build 0)  -->
<svg xmlns="http://www.w3.org/2000/svg" xmlns:xlink="http://www.w3.org/1999/xlink" version="1.1" id="Layer_1" x="0px" y="0px" viewBox="0 0 48 48" style="enable-background:new 0 0 48 48;" xml:space="preserve">
<g>
</g>
<rect x="41.219" y="35.884" transform="matrix(0.7071 -0.7071 0.7071 0.7071 -17.5911 42.4688)" style="fill:#616161;" width="2.5" height="13.17"/>
<path style="fill:#FFA000;" d="M40,12H22l-4-4H8c-2.2,0-4,1.8-4,4v8h40v-4C44,13.8,42.2,12,40,12z"/>
<path style="fill:#FFCA28;" d="M40,12H8c-2.2,0-4,1.8-4,4v20c0,2.2,1.8,4,4,4h32c2.2,0,4-1.8,4-4V16C44,13.8,42.2,12,40,12z"/>
<circle style="fill:#616161;" cx="35" cy="35" r="10"/>
<circle style="fill:#64B5F6;" cx="35" cy="35" r="8"/>
<rect x="43.906" y="42.372" transform="matrix(0.7071 -0.7071 0.7071 0.7071 -18.7043 45.1563)" style="fill:#37474F;" width="2.5" height="5.568"/>
<path style="fill:#BBDEFB;" d="M38.979,33c-0.303,0-0.603-0.137-0.799-0.397C37.41,31.584,36.251,31,35,31s-2.41,0.584-3.18,1.603  c-0.333,0.441-0.962,0.528-1.4,0.195c-0.441-0.333-0.528-0.96-0.195-1.4C31.376,29.874,33.116,29,35,29s3.624,0.874,4.775,2.397  c0.333,0.44,0.246,1.067-0.195,1.4C39.4,32.935,39.188,33,38.979,33z"/>
</svg>
