<?xml version="1.0" encoding="utf-8"?>
<!-- Generator: Adobe Illustrator 15.0.0, SVG Export Plug-In . SVG Version: 6.00 Build 0)  -->
<!DOCTYPE svg PUBLIC "-//W3C//DTD SVG 1.1//EN" "http://www.w3.org/Graphics/SVG/1.1/DTD/svg11.dtd">
<svg version="1.1"  xmlns="http://www.w3.org/2000/svg" xmlns:xlink="http://www.w3.org/1999/xlink" x="0px" y="0px"
	 width="48px" height="48px" viewBox="0 0 48 48" enable-background="new 0 0 48 48" xml:space="preserve">
<g>
	<rect x="8" y="10.001" fill="#FF9800" width="17" height="17"/>
	
		<rect x="7.661" y="9.661" transform="matrix(0.7071 -0.7071 0.7071 0.7071 -8.2487 17.0858)" fill="#FF9800" width="17.678" height="17.678"/>
</g>
<path fill="#FFEB3B" d="M10,18.5c0,3.591,2.909,6.5,6.5,6.5s6.5-2.909,6.5-6.5S20.091,12,16.5,12S10,14.909,10,18.5"/>
<g>
	<circle fill="#BBDEFB" cx="29.5" cy="25.5" r="8.5"/>
	<circle fill="#BBDEFB" cx="37" cy="33.893" r="7"/>
	<circle fill="#BBDEFB" cx="11" cy="34" r="7"/>
	<circle fill="#BBDEFB" cx="17.5" cy="26.5" r="6.5"/>
	<circle fill="#BBDEFB" cx="25" cy="31.893" r="7"/>
	<path fill="#BBDEFB" d="M7,37c0,2.209,1.791,4,4,4h25c2.209,0,4-1.791,4-4v-1c0-2.209-1.791-4-4-4H11c-2.209,0-4,1.791-4,4V37z"/>
</g>
</svg>
