<?xml version="1.0" encoding="utf-8"?>
<!-- Generator: Adobe Illustrator 15.0.0, SVG Export Plug-In . SVG Version: 6.00 Build 0)  -->
<!DOCTYPE svg PUBLIC "-//W3C//DTD SVG 1.1//EN" "http://www.w3.org/Graphics/SVG/1.1/DTD/svg11.dtd">
<svg version="1.1"  xmlns="http://www.w3.org/2000/svg" xmlns:xlink="http://www.w3.org/1999/xlink" x="0px" y="0px"
	 width="48px" height="48px" viewBox="0 0 48 48" enable-background="new 0 0 48 48" xml:space="preserve">
<path  fill="#FF9800" d="M44,18.1v-4H34v-10h-4v10h-4v-10h-4v10h-4v-10h-4v10H4v4h10v4H4v4h10v4H4v4h10v10h4v-10h4
	v10h4v-10h4v10h4v-10h10v-4H34v-4h10v-4H34v-4H44z"/>
<path  fill="#607D8B" d="M8,12.1v24c0,2.2,1.8,4,4,4h24c2.2,0,4-1.8,4-4v-24c0-2.2-1.8-4-4-4H12
	C9.8,8.1,8,9.9,8,12.1z"/>
<g >
	<circle  fill="#455A64" cx="15" cy="15.1" r="2"/>
	<circle  fill="#455A64" cx="33" cy="33.1" r="2"/>
</g>
</svg>
