<?xml version="1.0" encoding="utf-8"?>
<!-- Generator: Adobe Illustrator 21.0.2, SVG Export Plug-In . SVG Version: 6.00 Build 0)  -->
<svg xmlns="http://www.w3.org/2000/svg" xmlns:xlink="http://www.w3.org/1999/xlink" version="1.1" id="Layer_1" x="0px" y="0px" viewBox="0 0 48 48" style="enable-background:new 0 0 48 48;" xml:space="preserve">
<g id="surface1_117_">
	<path style="fill:#FFFFFF;" d="M41,24c0,9.4-7.6,17-17,17S7,33.4,7,24S14.6,7,24,7S41,14.6,41,24z"/>
	<path style="fill:#455A64;" d="M21,41v-5.5c0-0.3,0.2-0.5,0.5-0.5s0.5,0.2,0.5,0.5V41h2v-6.5c0-0.3,0.2-0.5,0.5-0.5   s0.5,0.2,0.5,0.5V41h2v-5.5c0-0.3,0.2-0.5,0.5-0.5s0.5,0.2,0.5,0.5V41h1.8c0.2-0.3,0.2-0.6,0.2-1.1V36c0-2.2-1.9-5.2-4.3-5.2h-2.5   c-2.3,0-4.3,3.1-4.3,5.2v3.9c0,0.4,0.1,0.8,0.2,1.1L21,41L21,41z"/>
	<path style="fill:#455A64;" d="M40.1,26.4C40.1,26.4,40.1,26.4,40.1,26.4c0,0-1.3-0.4-2.4-0.4c0,0-0.1,0-0.1,0   c-1.1,0-2.9,0.3-2.9,0.3c-0.1,0-0.1,0-0.1-0.1c0-0.1,0-0.1,0.1-0.1c0.1,0,2-0.3,3.1-0.3c1.1,0,2.4,0.4,2.5,0.4   c0.1,0,0.1,0.1,0.1,0.2C40.2,26.3,40.2,26.4,40.1,26.4z"/>
	<path style="fill:#455A64;" d="M39.8,27.2C39.8,27.2,39.8,27.2,39.8,27.2c0,0-1.4-0.4-2.6-0.4c-0.9,0-3,0.2-3.1,0.2   c-0.1,0-0.1,0-0.1-0.1c0-0.1,0-0.1,0.1-0.1c0.1,0,2.2-0.2,3.1-0.2c1.3,0,2.6,0.4,2.6,0.4c0.1,0,0.1,0.1,0.1,0.2   C39.9,27.1,39.9,27.2,39.8,27.2z"/>
	<path style="fill:#455A64;" d="M7.8,26.4c-0.1,0-0.1,0-0.1-0.1c0-0.1,0-0.1,0.1-0.2c0.8-0.2,2.4-0.5,3.3-0.5c0.8,0,3.5,0.2,3.6,0.2   c0.1,0,0.1,0.1,0.1,0.1c0,0.1-0.1,0.1-0.1,0.1c0,0-2.7-0.2-3.5-0.2C10.1,26,8.6,26.2,7.8,26.4C7.8,26.4,7.8,26.4,7.8,26.4z"/>
	<path style="fill:#455A64;" d="M8.2,27.9c0,0-0.1,0-0.1-0.1c0-0.1,0-0.1,0-0.2c0.1,0,1.4-0.8,2.9-1c1.3-0.2,4,0.1,4.2,0.1   c0.1,0,0.1,0.1,0.1,0.1c0,0.1-0.1,0.1-0.1,0.1c0,0,0,0,0,0c0,0-2.8-0.3-4.1-0.1C9.6,27.1,8.2,27.9,8.2,27.9   C8.2,27.9,8.2,27.9,8.2,27.9z"/>
	<path style="fill:#455A64;" d="M14.2,23.5c0-4.4,4.6-8.5,10.3-8.5c5.7,0,10.3,4,10.3,8.5S31.5,31,24.5,31S14.2,27.9,14.2,23.5z"/>
	<path style="fill:#455A64;" d="M28.6,16.3c0,0,1.7-2.3,4.8-2.3c1.2,1.2,0.4,4.8,0,5.8L28.6,16.3z"/>
	<path style="fill:#455A64;" d="M20.4,16.3c0,0-1.7-2.3-4.8-2.3c-1.2,1.2-0.4,4.8,0,5.8L20.4,16.3z"/>
	<path style="fill:#455A64;" d="M20.1,35.9c0,0-2.3,0-2.8,0c-1.2,0-2.3-0.5-2.8-1.5c-0.6-1.1-1.1-2.3-2.6-3.3   c-0.3-0.2-0.1-0.4,0.4-0.4c0.5,0.1,1.4,0.2,2.1,1.1c0.7,0.9,1.5,2,2.8,2c1.3,0,2.7,0,3.5-0.9L20.1,35.9z"/>
	<path style="fill:#00BCD4;" d="M24,4C13,4,4,13,4,24s9,20,20,20s20-9,20-20S35,4,24,4z M24,40c-8.8,0-16-7.2-16-16S15.2,8,24,8   s16,7.2,16,16S32.8,40,24,40z"/>
</g>
</svg>
