<?xml version="1.0" encoding="UTF-8"?>
<svg xmlns="http://www.w3.org/2000/svg" xmlns:xlink="http://www.w3.org/1999/xlink" width="50px" height="50px" viewBox="0 0 50 50" version="1.1">
<g id="surface446141">
<path style=" stroke:none;fill-rule:nonzero;fill:rgb(56.470588%,79.215686%,97.647059%);fill-opacity:1;" d="M 8.332031 3.125 L 41.667969 3.125 L 41.667969 46.875 L 8.332031 46.875 Z M 8.332031 3.125 "/>
<path style=" stroke:none;fill-rule:nonzero;fill:rgb(9.803922%,46.27451%,82.352941%);fill-opacity:1;" d="M 22.917969 12.5 L 27.082031 12.5 L 27.082031 14.582031 L 22.917969 14.582031 Z M 22.917969 6.25 L 27.082031 6.25 L 27.082031 8.332031 L 22.917969 8.332031 Z M 22.917969 9.375 L 27.082031 9.375 L 27.082031 11.457031 L 22.917969 11.457031 Z M 22.917969 15.625 L 27.082031 15.625 L 27.082031 17.707031 L 22.917969 17.707031 Z M 22.917969 3.125 L 27.082031 3.125 L 27.082031 5.207031 L 22.917969 5.207031 Z M 22.917969 3.125 "/>
<path style=" stroke:none;fill-rule:nonzero;fill:rgb(24.705882%,31.764706%,70.980392%);fill-opacity:1;" d="M 27.082031 18.75 L 22.917969 18.75 C 22.917969 21.875 20.832031 25 20.832031 27.082031 C 20.832031 29.382812 22.699219 31.25 25 31.25 C 27.300781 31.25 29.167969 29.382812 29.167969 27.082031 C 29.167969 25 27.082031 21.875 27.082031 18.75 Z M 25 29.167969 C 23.851562 29.167969 22.917969 28.234375 22.917969 27.082031 C 22.917969 25.933594 23.851562 25 25 25 C 26.148438 25 27.082031 25.933594 27.082031 27.082031 C 27.082031 28.234375 26.148438 29.167969 25 29.167969 Z M 25 29.167969 "/>
<path style=" stroke:none;fill-rule:nonzero;fill:rgb(61.176471%,34.901961%,72.156863%);fill-opacity:1;" d="M 50 50 L 32.292969 50 L 32.292969 32.292969 L 46.875 32.292969 L 50 35.417969 Z M 50 50 "/>
<path style=" stroke:none;fill-rule:nonzero;fill:rgb(81.176471%,84.705882%,86.27451%);fill-opacity:1;" d="M 35.9375 44.269531 L 46.355469 44.269531 L 46.355469 45.3125 L 35.9375 45.3125 Z M 35.9375 42.1875 L 46.355469 42.1875 L 46.355469 43.230469 L 35.9375 43.230469 Z M 35.9375 46.355469 L 46.355469 46.355469 L 46.355469 47.394531 L 35.9375 47.394531 Z M 35.9375 46.355469 "/>
<path style=" stroke:none;fill-rule:nonzero;fill:rgb(100%,100%,100%);fill-opacity:1;" d="M 47.089844 40.625 L 35.199219 40.625 C 34.742188 40.625 34.375 40.992188 34.375 41.449219 L 34.375 47.09375 C 34.375 47.546875 34.742188 47.917969 35.199219 47.917969 L 47.09375 47.917969 C 47.546875 47.917969 47.917969 47.546875 47.917969 47.089844 L 47.917969 41.449219 C 47.917969 40.992188 47.546875 40.625 47.089844 40.625 Z M 47.089844 40.625 "/>
<path style=" stroke:none;fill-rule:nonzero;fill:rgb(55.294118%,26.666667%,68.235294%);fill-opacity:1;" d="M 34.375 32.292969 L 34.375 36.675781 C 34.375 37.132812 34.742188 37.5 35.199219 37.5 L 45.007812 37.5 C 45.464844 37.5 45.832031 37.132812 45.832031 36.675781 L 45.832031 32.292969 Z M 34.375 32.292969 "/>
<path style=" stroke:none;fill-rule:nonzero;fill:rgb(69.019608%,74.509804%,77.254902%);fill-opacity:1;" d="M 38.542969 32.292969 L 38.542969 36.675781 C 38.542969 37.132812 38.910156 37.5 39.367188 37.5 L 45.007812 37.5 C 45.464844 37.5 45.832031 37.132812 45.832031 36.675781 L 45.832031 32.292969 Z M 38.542969 32.292969 "/>
<path style=" stroke:none;fill-rule:nonzero;fill:rgb(14.901961%,19.607843%,21.960784%);fill-opacity:1;" d="M 41.667969 33.332031 L 43.75 33.332031 L 43.75 36.457031 L 41.667969 36.457031 Z M 41.667969 33.332031 "/>
<path style=" stroke:none;fill-rule:nonzero;fill:rgb(81.176471%,84.705882%,86.27451%);fill-opacity:1;" d="M 36.457031 42.707031 L 45.832031 42.707031 L 45.832031 43.75 L 36.457031 43.75 Z M 36.457031 44.792969 L 45.832031 44.792969 L 45.832031 45.832031 L 36.457031 45.832031 Z M 36.457031 44.792969 "/>
</g>
</svg>
