<?xml version="1.0" encoding="UTF-8"?>
<svg xmlns="http://www.w3.org/2000/svg" xmlns:xlink="http://www.w3.org/1999/xlink" width="50px" height="50px" viewBox="0 0 50 50" version="1.1">
<g id="surface447037">
<path style=" stroke:none;fill-rule:nonzero;fill:rgb(56.470588%,64.313725%,68.235294%);fill-opacity:1;" d="M 32.292969 40.625 C 35.417969 40.625 14.582031 40.625 17.707031 40.625 C 20.832031 40.625 20.832031 35.417969 20.832031 35.417969 L 29.167969 35.417969 C 29.167969 35.417969 29.167969 40.625 32.292969 40.625 Z M 32.292969 40.625 "/>
<path style=" stroke:none;fill-rule:nonzero;fill:rgb(27.058824%,35.294118%,39.215686%);fill-opacity:1;" d="M 41.667969 7.292969 L 8.332031 7.292969 C 7.183594 7.292969 6.25 8.226562 6.25 9.375 L 6.25 31.25 L 43.75 31.25 L 43.75 9.375 C 43.75 8.226562 42.816406 7.292969 41.667969 7.292969 Z M 41.667969 7.292969 "/>
<path style=" stroke:none;fill-rule:nonzero;fill:rgb(73.333333%,87.058824%,98.431373%);fill-opacity:1;" d="M 8.332031 9.375 L 41.667969 9.375 L 41.667969 29.167969 L 8.332031 29.167969 Z M 8.332031 9.375 "/>
<path style=" stroke:none;fill-rule:nonzero;fill:rgb(69.019608%,74.509804%,77.254902%);fill-opacity:1;" d="M 6.25 33.332031 C 6.25 34.484375 7.183594 35.417969 8.332031 35.417969 L 41.667969 35.417969 C 42.816406 35.417969 43.75 34.484375 43.75 33.332031 L 43.75 31.25 L 6.25 31.25 Z M 17.707031 40.625 L 32.292969 40.625 L 32.292969 42.707031 L 17.707031 42.707031 Z M 17.707031 40.625 "/>
<path style=" stroke:none;fill-rule:nonzero;fill:rgb(21.568627%,27.843137%,30.980392%);fill-opacity:1;" d="M 25 32.292969 C 24.425781 32.292969 23.957031 32.757812 23.957031 33.332031 C 23.957031 33.910156 24.425781 34.375 25 34.375 C 25.574219 34.375 26.042969 33.910156 26.042969 33.332031 C 26.042969 32.757812 25.574219 32.292969 25 32.292969 Z M 25 32.292969 "/>
<path style=" stroke:none;fill-rule:nonzero;fill:rgb(24.705882%,31.764706%,70.980392%);fill-opacity:1;" d="M 30.207031 22.433594 C 29.894531 23.140625 29.746094 23.457031 29.34375 24.082031 C 28.78125 24.945312 27.988281 26.035156 27.003906 26.039062 C 26.132812 26.046875 25.910156 25.460938 24.722656 25.472656 C 23.539062 25.476562 23.289062 26.050781 22.417969 26.042969 C 21.433594 26.035156 20.683594 25.054688 20.121094 24.1875 C 18.546875 21.75 18.382812 18.898438 19.351562 17.378906 C 20.042969 16.300781 21.132812 15.671875 22.152344 15.671875 C 23.195312 15.671875 23.847656 16.25 24.710938 16.25 C 25.542969 16.25 26.054688 15.667969 27.257812 15.667969 C 28.167969 15.667969 29.132812 16.171875 29.820312 17.042969 C 27.570312 18.292969 27.933594 21.5625 30.207031 22.433594 Z M 26.34375 14.695312 C 26.78125 14.125 27.113281 13.320312 26.996094 12.5 C 26.277344 12.546875 25.445312 13.011719 24.957031 13.613281 C 24.511719 14.15625 24.148438 14.972656 24.289062 15.757812 C 25.066406 15.78125 25.875 15.308594 26.34375 14.695312 Z M 26.34375 14.695312 "/>
</g>
</svg>
