<?xml version="1.0" encoding="UTF-8"?>
<svg xmlns="http://www.w3.org/2000/svg" xmlns:xlink="http://www.w3.org/1999/xlink" width="50px" height="50px" viewBox="0 0 50 50" version="1.1">
<g id="surface446430">
<path style=" stroke:none;fill-rule:nonzero;fill:rgb(100%,56.078431%,0%);fill-opacity:1;" d="M 40.625 40.730469 L 9.375 40.730469 C 7.605469 40.730469 6.25 39.375 6.25 37.605469 L 6.25 9.375 C 6.25 7.605469 7.605469 6.25 9.375 6.25 L 40.625 6.25 C 42.394531 6.25 43.75 7.605469 43.75 9.375 L 43.75 37.605469 C 43.75 39.269531 42.394531 40.730469 40.625 40.730469 Z M 40.625 40.730469 "/>
<path style=" stroke:none;fill-rule:nonzero;fill:rgb(86.666667%,17.254902%,0%);fill-opacity:1;" d="M 40.625 43.75 L 9.375 43.75 C 7.605469 43.75 6.25 42.394531 6.25 40.625 L 6.25 14.582031 C 6.25 12.8125 7.605469 11.457031 9.375 11.457031 L 40.625 11.457031 C 42.394531 11.457031 43.75 12.8125 43.75 14.582031 L 43.75 40.625 C 43.75 42.394531 42.394531 43.75 40.625 43.75 Z M 40.625 43.75 "/>
<path style=" stroke:none;fill-rule:nonzero;fill:rgb(71.764706%,10.980392%,10.980392%);fill-opacity:1;" d="M 15.625 15.625 C 14.472656 15.625 13.542969 16.558594 13.542969 17.707031 C 13.542969 18.859375 14.472656 19.792969 15.625 19.792969 C 16.777344 19.792969 17.707031 18.859375 17.707031 17.707031 C 17.707031 16.558594 16.777344 15.625 15.625 15.625 Z M 34.375 15.625 C 33.222656 15.625 32.292969 16.558594 32.292969 17.707031 C 32.292969 18.859375 33.222656 19.792969 34.375 19.792969 C 35.527344 19.792969 36.457031 18.859375 36.457031 17.707031 C 36.457031 16.558594 35.527344 15.625 34.375 15.625 Z M 34.375 15.625 "/>
<path style=" stroke:none;fill-rule:nonzero;fill:rgb(100%,100%,100%);fill-opacity:1;" d="M 25 28.125 C 19.269531 28.125 14.582031 23.4375 14.582031 17.707031 C 14.582031 17.082031 15 16.667969 15.625 16.667969 C 16.25 16.667969 16.667969 17.082031 16.667969 17.707031 C 16.667969 22.292969 20.417969 26.042969 25 26.042969 C 29.582031 26.042969 33.332031 22.292969 33.332031 17.707031 C 33.332031 17.082031 33.75 16.667969 34.375 16.667969 C 35 16.667969 35.417969 17.082031 35.417969 17.707031 C 35.417969 23.4375 30.730469 28.125 25 28.125 Z M 25 28.125 "/>
</g>
</svg>
