<?xml version="1.0" encoding="UTF-8"?>
<svg xmlns="http://www.w3.org/2000/svg" xmlns:xlink="http://www.w3.org/1999/xlink" width="50px" height="50px" viewBox="0 0 50 50" version="1.1">
<defs>
<clipPath id="clip1">
  <path d="M 5.207031 6.25 L 45.832031 6.25 L 45.832031 42.707031 L 5.207031 42.707031 Z M 5.207031 6.25 "/>
</clipPath>
<clipPath id="clip2">
  <path d="M 23 6.25 L 45 6.25 L 45 42.707031 L 23 42.707031 Z M 23 6.25 "/>
</clipPath>
<clipPath id="clip3">
  <path d="M 5.207031 6.25 L 40 6.25 L 40 42.707031 L 5.207031 42.707031 Z M 5.207031 6.25 "/>
</clipPath>
<clipPath id="clip4">
  <path d="M 21 6.25 L 32 6.25 L 32 42.707031 L 21 42.707031 Z M 21 6.25 "/>
</clipPath>
</defs>
<g id="surface446020">
<g clip-path="url(#clip1)" clip-rule="nonzero">
<path style=" stroke:none;fill-rule:nonzero;fill:rgb(88.235294%,88.235294%,88.235294%);fill-opacity:1;" d="M 41.726562 42.6875 L 9.316406 42.6875 C 7.046875 42.6875 5.207031 40.847656 5.207031 38.578125 L 5.207031 10.378906 C 5.207031 8.109375 7.046875 6.269531 9.316406 6.269531 L 41.726562 6.269531 C 43.992188 6.269531 45.832031 8.109375 45.832031 10.378906 L 45.832031 38.582031 C 45.832031 40.847656 43.992188 42.6875 41.726562 42.6875 Z M 41.726562 42.6875 "/>
</g>
<g clip-path="url(#clip2)" clip-rule="nonzero">
<path style=" stroke:none;fill-rule:nonzero;fill:rgb(88.235294%,88.235294%,88.235294%);fill-opacity:1;" d="M 40.617188 6.292969 L 27.417969 6.292969 C 27.378906 6.292969 27.34375 6.316406 27.332031 6.351562 C 26.28125 9.175781 25.445312 12.101562 24.832031 15.050781 C 24.257812 17.949219 23.894531 20.90625 23.765625 23.863281 C 23.761719 23.914062 23.804688 23.957031 23.855469 23.957031 L 27.832031 23.957031 C 28.25 23.957031 28.65625 24.136719 28.9375 24.449219 C 29.21875 24.761719 29.355469 25.175781 29.3125 25.59375 C 29.023438 28.621094 29.019531 31.691406 29.332031 34.722656 C 29.339844 34.777344 29.386719 34.816406 29.441406 34.804688 C 31.84375 34.347656 34.925781 33.277344 37.800781 30.863281 C 38.25 30.5 38.90625 30.5625 39.269531 31 C 39.644531 31.4375 39.582031 32.09375 39.144531 32.46875 C 35.878906 35.199219 32.375 36.382812 29.6875 36.878906 C 29.640625 36.886719 29.609375 36.933594 29.617188 36.980469 C 29.90625 38.886719 30.320312 40.785156 30.847656 42.640625 C 30.855469 42.679688 30.894531 42.707031 30.933594 42.707031 L 40.539062 42.707031 C 42.886719 42.707031 44.792969 40.804688 44.792969 38.457031 L 44.792969 10.464844 C 44.792969 8.160156 42.921875 6.292969 40.617188 6.292969 Z M 35.574219 18.699219 C 35.574219 19.269531 35.105469 19.738281 34.53125 19.738281 C 33.957031 19.738281 33.488281 19.269531 33.488281 18.699219 L 33.488281 15.3125 C 33.488281 14.738281 33.957031 14.269531 34.53125 14.269531 C 35.105469 14.269531 35.574219 14.738281 35.574219 15.3125 Z M 35.574219 18.699219 "/>
</g>
<path style=" stroke:none;fill-rule:nonzero;fill:rgb(0%,71.764706%,97.647059%);fill-opacity:1;" d="M 33.488281 18.699219 L 33.488281 15.3125 C 33.488281 14.738281 33.957031 14.269531 34.53125 14.269531 C 35.105469 14.269531 35.574219 14.738281 35.574219 15.3125 L 35.574219 18.699219 C 35.574219 19.269531 35.105469 19.738281 34.53125 19.738281 C 33.957031 19.738281 33.488281 19.269531 33.488281 18.699219 Z M 33.488281 18.699219 "/>
<g clip-path="url(#clip3)" clip-rule="nonzero">
<path style=" stroke:none;fill-rule:nonzero;fill:rgb(0%,71.764706%,97.647059%);fill-opacity:1;" d="M 39.144531 32.46875 C 35.84375 35.230469 32.300781 36.40625 29.605469 36.894531 C 29.894531 38.855469 30.324219 40.800781 30.863281 42.707031 L 9.378906 42.707031 C 7.074219 42.707031 5.207031 40.839844 5.207031 38.539062 L 5.207031 10.472656 C 5.207031 8.164062 7.082031 6.292969 9.386719 6.292969 L 27.355469 6.292969 C 26.292969 9.136719 25.449219 12.082031 24.832031 15.050781 C 24.25 17.980469 23.886719 20.96875 23.761719 23.957031 L 27.832031 23.957031 C 28.25 23.957031 28.65625 24.136719 28.9375 24.449219 C 29.21875 24.761719 29.355469 25.175781 29.3125 25.59375 C 29.019531 28.65625 29.019531 31.761719 29.34375 34.824219 C 31.761719 34.375 34.886719 33.3125 37.800781 30.863281 C 38.25 30.5 38.90625 30.5625 39.269531 31 C 39.644531 31.4375 39.582031 32.09375 39.144531 32.46875 Z M 39.144531 32.46875 "/>
</g>
<g clip-path="url(#clip4)" clip-rule="nonzero">
<path style=" stroke:none;fill-rule:nonzero;fill:rgb(0%,62.745098%,81.960784%);fill-opacity:1;" d="M 30.863281 42.707031 C 30.324219 40.800781 29.894531 38.855469 29.605469 36.894531 C 29.511719 36.28125 29.425781 35.65625 29.363281 35.042969 C 29.355469 34.96875 29.355469 34.894531 29.34375 34.824219 C 29.019531 31.761719 29.019531 28.65625 29.3125 25.59375 C 29.355469 25.175781 29.21875 24.761719 28.9375 24.449219 C 28.65625 24.136719 28.25 23.957031 27.832031 23.957031 L 23.761719 23.957031 C 23.886719 20.96875 24.25 17.980469 24.832031 15.050781 C 25.449219 12.082031 26.292969 9.136719 27.355469 6.292969 C 27.4375 6.074219 27.519531 5.863281 27.605469 5.644531 L 25.667969 4.886719 C 25.488281 5.355469 25.3125 5.824219 25.144531 6.292969 C 24.15625 9.011719 23.363281 11.8125 22.792969 14.644531 C 22.136719 17.886719 21.761719 21.199219 21.65625 24.511719 C 21.644531 24.917969 21.792969 25.300781 22.082031 25.59375 C 22.355469 25.875 22.75 26.042969 23.15625 26.042969 L 27.175781 26.042969 C 26.925781 29.050781 26.957031 32.09375 27.269531 35.09375 C 27.28125 35.144531 27.28125 35.207031 27.292969 35.261719 C 27.363281 35.894531 27.4375 36.53125 27.542969 37.15625 C 27.8125 39.03125 28.207031 40.886719 28.699219 42.707031 C 28.96875 43.699219 29.261719 44.667969 29.59375 45.636719 L 31.574219 44.957031 C 31.3125 44.21875 31.082031 43.457031 30.863281 42.707031 Z M 30.863281 42.707031 "/>
</g>
<path style=" stroke:none;fill-rule:nonzero;fill:rgb(21.568627%,27.843137%,30.980392%);fill-opacity:1;" d="M 39.144531 32.46875 C 35.84375 35.230469 32.300781 36.40625 29.605469 36.894531 C 28.84375 37.03125 28.144531 37.113281 27.542969 37.15625 C 26.957031 37.207031 26.457031 37.21875 26.074219 37.21875 C 19.394531 37.21875 14.707031 33.894531 13 32.46875 C 12.550781 32.09375 12.5 31.4375 12.863281 31 C 13.238281 30.5625 13.894531 30.5 14.332031 30.863281 C 15.863281 32.15625 20.074219 35.136719 26.074219 35.136719 C 26.394531 35.136719 26.800781 35.125 27.269531 35.09375 C 27.863281 35.050781 28.5625 34.96875 29.34375 34.824219 C 31.761719 34.375 34.886719 33.3125 37.800781 30.863281 C 38.25 30.5 38.90625 30.5625 39.269531 31 C 39.644531 31.4375 39.582031 32.09375 39.144531 32.46875 Z M 39.144531 32.46875 "/>
<path style=" stroke:none;fill-rule:nonzero;fill:rgb(21.568627%,27.843137%,30.980392%);fill-opacity:1;" d="M 16.484375 19.738281 C 15.910156 19.738281 15.445312 19.273438 15.445312 18.699219 L 15.445312 15.316406 C 15.445312 14.738281 15.910156 14.273438 16.484375 14.273438 C 17.0625 14.273438 17.527344 14.738281 17.527344 15.316406 L 17.527344 18.699219 C 17.527344 19.273438 17.0625 19.738281 16.484375 19.738281 Z M 16.484375 19.738281 "/>
<path style=" stroke:none;fill-rule:nonzero;fill:rgb(21.568627%,27.843137%,30.980392%);fill-opacity:1;" d="M 35.574219 15.3125 L 35.574219 18.699219 C 35.574219 19.269531 35.105469 19.738281 34.53125 19.738281 C 33.957031 19.738281 33.488281 19.269531 33.488281 18.699219 L 33.488281 15.3125 C 33.488281 14.738281 33.957031 14.269531 34.53125 14.269531 C 35.105469 14.269531 35.574219 14.738281 35.574219 15.3125 Z M 35.574219 15.3125 "/>
</g>
</svg>
