<?xml version="1.0" encoding="UTF-8"?>
<svg xmlns="http://www.w3.org/2000/svg" xmlns:xlink="http://www.w3.org/1999/xlink" width="50px" height="50px" viewBox="0 0 50 50" version="1.1">
<g id="surface442809">
<path style=" stroke:none;fill-rule:nonzero;fill:rgb(77.647059%,15.686275%,15.686275%);fill-opacity:1;" d="M 22.917969 3.125 L 27.082031 3.125 L 27.082031 11.457031 L 22.917969 11.457031 Z M 22.917969 3.125 "/>
<path style=" stroke:none;fill-rule:nonzero;fill:rgb(27.058824%,35.294118%,39.215686%);fill-opacity:1;" d="M 9.375 29.167969 L 40.625 29.167969 L 40.625 31.25 L 9.375 31.25 Z M 9.375 29.167969 "/>
<path style=" stroke:none;fill-rule:nonzero;fill:rgb(27.058824%,35.294118%,39.215686%);fill-opacity:1;" d="M 35.84375 43.078125 L 37.738281 42.21875 L 39.457031 46.015625 L 37.558594 46.875 Z M 35.84375 43.078125 "/>
<path style=" stroke:none;fill-rule:nonzero;fill:rgb(27.058824%,35.294118%,39.215686%);fill-opacity:1;" d="M 12.449219 46.878906 L 10.550781 46.019531 L 12.269531 42.222656 L 14.167969 43.082031 Z M 12.449219 46.878906 "/>
<path style=" stroke:none;fill-rule:nonzero;fill:rgb(69.019608%,74.509804%,77.254902%);fill-opacity:1;" d="M 27.664062 11.457031 C 26.707031 12.480469 25.414062 13.175781 23.957031 13.375 L 35.980469 43.394531 L 37.882812 42.527344 L 38.144531 38.042969 Z M 27.664062 11.457031 "/>
<path style=" stroke:none;fill-rule:nonzero;fill:rgb(69.019608%,74.509804%,77.254902%);fill-opacity:1;" d="M 22.335938 11.625 C 23.292969 12.644531 24.585938 13.34375 26.042969 13.542969 L 14.03125 43.394531 L 12.128906 42.527344 L 11.867188 38.042969 Z M 22.335938 11.625 "/>
<path style=" stroke:none;fill-rule:nonzero;fill:rgb(95.686275%,26.27451%,21.176471%);fill-opacity:1;" d="M 25 7.292969 C 22.125 7.292969 19.792969 9.625 19.792969 12.5 C 19.792969 15.378906 22.125 17.707031 25 17.707031 C 27.875 17.707031 30.207031 15.378906 30.207031 12.5 C 30.207031 9.625 27.875 7.292969 25 7.292969 Z M 25 7.292969 "/>
<path style=" stroke:none;fill-rule:nonzero;fill:rgb(92.54902%,93.72549%,94.509804%);fill-opacity:1;" d="M 25 11.457031 C 24.425781 11.457031 23.957031 11.925781 23.957031 12.5 C 23.957031 13.074219 24.425781 13.542969 25 13.542969 C 25.574219 13.542969 26.042969 13.074219 26.042969 12.5 C 26.042969 11.925781 25.574219 11.457031 25 11.457031 Z M 25 11.457031 "/>
<path style=" stroke:none;fill-rule:nonzero;fill:rgb(47.058824%,56.470588%,61.176471%);fill-opacity:1;" d="M 27.082031 33.332031 C 27.082031 33.910156 26.617188 34.375 26.042969 34.375 L 23.957031 34.375 C 23.382812 34.375 22.917969 33.910156 22.917969 33.332031 L 22.917969 27.082031 C 22.917969 26.507812 23.382812 26.042969 23.957031 26.042969 L 26.042969 26.042969 C 26.617188 26.042969 27.082031 26.507812 27.082031 27.082031 Z M 27.082031 33.332031 "/>
</g>
</svg>
