<?xml version="1.0" encoding="UTF-8"?>
<svg xmlns="http://www.w3.org/2000/svg" xmlns:xlink="http://www.w3.org/1999/xlink" width="50px" height="50px" viewBox="0 0 50 50" version="1.1">
<g id="surface445715">
<path style=" stroke:none;fill-rule:nonzero;fill:rgb(56.470588%,79.215686%,97.647059%);fill-opacity:1;" d="M 8.332031 3.125 L 41.667969 3.125 L 41.667969 46.875 L 8.332031 46.875 Z M 8.332031 3.125 "/>
<path style=" stroke:none;fill-rule:nonzero;fill:rgb(9.803922%,46.27451%,82.352941%);fill-opacity:1;" d="M 22.917969 12.5 L 27.082031 12.5 L 27.082031 14.582031 L 22.917969 14.582031 Z M 22.917969 6.25 L 27.082031 6.25 L 27.082031 8.332031 L 22.917969 8.332031 Z M 22.917969 9.375 L 27.082031 9.375 L 27.082031 11.457031 L 22.917969 11.457031 Z M 22.917969 15.625 L 27.082031 15.625 L 27.082031 17.707031 L 22.917969 17.707031 Z M 22.917969 3.125 L 27.082031 3.125 L 27.082031 5.207031 L 22.917969 5.207031 Z M 22.917969 3.125 "/>
<path style=" stroke:none;fill-rule:nonzero;fill:rgb(24.705882%,31.764706%,70.980392%);fill-opacity:1;" d="M 27.082031 18.75 L 22.917969 18.75 C 22.917969 21.875 20.832031 25 20.832031 27.082031 C 20.832031 29.382812 22.699219 31.25 25 31.25 C 27.300781 31.25 29.167969 29.382812 29.167969 27.082031 C 29.167969 25 27.082031 21.875 27.082031 18.75 Z M 25 29.167969 C 23.851562 29.167969 22.917969 28.234375 22.917969 27.082031 C 22.917969 25.933594 23.851562 25 25 25 C 26.148438 25 27.082031 25.933594 27.082031 27.082031 C 27.082031 28.234375 26.148438 29.167969 25 29.167969 Z M 25 29.167969 "/>
<path style=" stroke:none;fill-rule:nonzero;fill:rgb(26.27451%,62.745098%,27.843137%);fill-opacity:1;" d="M 50 39.582031 C 50 45.335938 45.335938 50 39.582031 50 C 33.832031 50 29.167969 45.335938 29.167969 39.582031 C 29.167969 33.832031 33.832031 29.167969 39.582031 29.167969 C 45.335938 29.167969 50 33.832031 50 39.582031 "/>
<path style=" stroke:none;fill-rule:nonzero;fill:rgb(100%,100%,100%);fill-opacity:1;" d="M 37.5 33.332031 L 41.667969 33.332031 L 41.667969 45.832031 L 37.5 45.832031 Z M 37.5 33.332031 "/>
<path style=" stroke:none;fill-rule:nonzero;fill:rgb(100%,100%,100%);fill-opacity:1;" d="M 33.332031 37.5 L 45.832031 37.5 L 45.832031 41.667969 L 33.332031 41.667969 Z M 33.332031 37.5 "/>
</g>
</svg>
