<?xml version="1.0" encoding="UTF-8"?>
<svg xmlns="http://www.w3.org/2000/svg" xmlns:xlink="http://www.w3.org/1999/xlink" width="50px" height="50px" viewBox="0 0 50 50" version="1.1">
<g id="surface444526">
<path style=" stroke:none;fill-rule:nonzero;fill:rgb(21.568627%,27.843137%,30.980392%);fill-opacity:1;" d="M 42.707031 41.667969 L 7.292969 41.667969 C 5 41.667969 3.125 39.792969 3.125 37.5 L 3.125 12.5 C 3.125 10.207031 5 8.332031 7.292969 8.332031 L 42.707031 8.332031 C 45 8.332031 46.875 10.207031 46.875 12.5 L 46.875 37.5 C 46.875 39.792969 45 41.667969 42.707031 41.667969 "/>
<path style=" stroke:none;fill-rule:nonzero;fill:rgb(73.333333%,87.058824%,98.431373%);fill-opacity:1;" d="M 6.25 13.542969 L 6.25 34.375 C 6.25 35 6.667969 35.417969 7.292969 35.417969 L 42.707031 35.417969 C 43.332031 35.417969 43.75 35 43.75 34.375 L 43.75 13.542969 C 43.75 12.917969 43.332031 12.5 42.707031 12.5 L 7.292969 12.5 C 6.667969 12.5 6.25 12.917969 6.25 13.542969 "/>
<path style=" stroke:none;fill-rule:nonzero;fill:rgb(12.941176%,58.823529%,95.294118%);fill-opacity:1;" d="M 23.957031 28.957031 L 17.707031 28.019531 L 17.707031 23.957031 L 23.957031 23.957031 Z M 25 23.957031 L 25 29.0625 L 32.292969 30.207031 L 32.292969 23.957031 Z M 23.957031 17.917969 L 17.707031 18.855469 L 17.707031 22.917969 L 23.957031 22.917969 Z M 25 17.8125 L 25 22.917969 L 32.292969 22.917969 L 32.292969 16.667969 Z M 25 17.8125 "/>
<path style=" stroke:none;fill-rule:nonzero;fill:rgb(47.058824%,56.470588%,61.176471%);fill-opacity:1;" d="M 25 36.457031 C 23.847656 36.457031 22.917969 37.390625 22.917969 38.542969 C 22.917969 39.691406 23.847656 40.625 25 40.625 C 26.152344 40.625 27.082031 39.691406 27.082031 38.542969 C 27.082031 37.390625 26.152344 36.457031 25 36.457031 Z M 25 36.457031 "/>
<path style=" stroke:none;fill-rule:nonzero;fill:rgb(77.647059%,100%,0%);fill-opacity:1;" d="M 25 9.375 C 24.425781 9.375 23.957031 9.839844 23.957031 10.417969 C 23.957031 10.992188 24.425781 11.457031 25 11.457031 C 25.574219 11.457031 26.042969 10.992188 26.042969 10.417969 C 26.042969 9.839844 25.574219 9.375 25 9.375 Z M 25 9.375 "/>
<path style=" stroke:none;fill-rule:nonzero;fill:rgb(47.058824%,56.470588%,61.176471%);fill-opacity:1;" d="M 20.832031 9.375 C 20.257812 9.375 19.792969 9.839844 19.792969 10.417969 C 19.792969 10.992188 20.257812 11.457031 20.832031 11.457031 C 21.410156 11.457031 21.875 10.992188 21.875 10.417969 C 21.875 9.839844 21.410156 9.375 20.832031 9.375 Z M 20.832031 9.375 "/>
</g>
</svg>
