<?xml version="1.0" encoding="UTF-8"?>
<svg xmlns="http://www.w3.org/2000/svg" xmlns:xlink="http://www.w3.org/1999/xlink" width="50px" height="50px" viewBox="0 0 50 50" version="1.1">
<g id="surface446016">
<path style=" stroke:none;fill-rule:nonzero;fill:rgb(1.176471%,66.27451%,95.686275%);fill-opacity:1;" d="M 23.757812 25.53125 L 20.125 38.113281 C 16.96875 35.976562 13.535156 34.210938 6.25 37.246094 L 9.800781 24.804688 L 9.84375 24.785156 C 17.097656 21.777344 20.613281 23.382812 23.757812 25.53125 Z M 23.757812 25.53125 "/>
<path style=" stroke:none;fill-rule:nonzero;fill:rgb(100%,75.686275%,2.745098%);fill-opacity:1;" d="M 25.660156 26.75 L 22.070312 39.191406 C 25.222656 41.347656 28.71875 43.0625 35.992188 40.027344 L 39.453125 27.902344 C 32.042969 30.457031 28.8125 28.886719 25.660156 26.75 Z M 25.660156 26.75 "/>
<path style=" stroke:none;fill-rule:nonzero;fill:rgb(100%,34.117647%,13.333333%);fill-opacity:1;" d="M 24.363281 23.269531 L 27.945312 10.804688 C 24.792969 8.660156 21.292969 6.933594 14.015625 9.976562 L 10.429688 22.488281 C 13.320312 21.289062 15.605469 20.738281 17.519531 20.753906 C 20.421875 20.773438 22.460938 21.980469 24.363281 23.269531 Z M 24.363281 23.269531 "/>
<path style=" stroke:none;fill-rule:nonzero;fill:rgb(48.627451%,70.196078%,25.882353%);fill-opacity:1;" d="M 29.835938 12.117188 L 26.253906 24.648438 C 29.398438 26.800781 33.199219 28.558594 40.167969 25.417969 L 43.75 12.933594 C 36.480469 15.957031 32.984375 14.257812 29.835938 12.117188 Z M 29.835938 12.117188 "/>
</g>
</svg>
