<?xml version="1.0" encoding="UTF-8"?>
<svg xmlns="http://www.w3.org/2000/svg" xmlns:xlink="http://www.w3.org/1999/xlink" width="50px" height="50px" viewBox="0 0 50 50" version="1.1">
<g id="surface443145">
<path style=" stroke:none;fill-rule:nonzero;fill:rgb(73.333333%,87.058824%,98.431373%);fill-opacity:1;" d="M 36.457031 6.25 L 7.292969 6.25 C 6.714844 6.25 6.25 6.714844 6.25 7.292969 L 6.25 43.75 L 37.5 43.75 L 37.5 7.292969 C 37.5 6.714844 37.035156 6.25 36.457031 6.25 Z M 36.457031 6.25 "/>
<path style=" stroke:none;fill-rule:nonzero;fill:rgb(12.941176%,58.823529%,95.294118%);fill-opacity:1;" d="M 25 6.25 L 36.457031 6.25 C 37.035156 6.25 37.5 6.714844 37.5 7.292969 L 37.5 37.5 L 25 37.5 Z M 25 6.25 "/>
<path style=" stroke:none;fill-rule:nonzero;fill:rgb(24.705882%,31.764706%,70.980392%);fill-opacity:1;" d="M 6.25 37.5 L 43.75 37.5 L 43.75 43.75 L 6.25 43.75 Z M 6.25 37.5 "/>
<path style=" stroke:none;fill-rule:nonzero;fill:rgb(100%,92.156863%,23.137255%);fill-opacity:1;" d="M 10.417969 38.542969 C 9.265625 38.542969 8.332031 39.472656 8.332031 40.625 C 8.332031 41.777344 9.265625 42.707031 10.417969 42.707031 C 11.566406 42.707031 12.5 41.777344 12.5 40.625 C 12.5 39.472656 11.566406 38.542969 10.417969 38.542969 Z M 10.417969 38.542969 "/>
<path style=" stroke:none;fill-rule:nonzero;fill:rgb(9.803922%,46.27451%,82.352941%);fill-opacity:1;" d="M 9.375 9.375 L 21.875 9.375 L 21.875 11.457031 L 9.375 11.457031 Z M 9.375 13.542969 L 21.875 13.542969 L 21.875 15.625 L 9.375 15.625 Z M 9.375 13.542969 "/>
<path style=" stroke:none;fill-rule:nonzero;fill:rgb(98.039216%,98.039216%,98.039216%);fill-opacity:1;" d="M 35.546875 33.332031 C 35.546875 32.757812 35.082031 32.292969 34.503906 32.292969 L 28.125 32.292969 C 27.550781 32.292969 27.082031 32.757812 27.082031 33.332031 C 27.082031 33.910156 27.550781 34.375 28.125 34.375 L 34.503906 34.375 C 35.082031 34.375 35.546875 33.910156 35.546875 33.332031 Z M 35.546875 33.332031 "/>
</g>
</svg>
