<?xml version="1.0" encoding="utf-8"?>
<!-- Generator: Adobe Illustrator 19.1.1, SVG Export Plug-In . SVG Version: 6.00 Build 0)  -->
<svg version="1.1"  xmlns="http://www.w3.org/2000/svg" xmlns:xlink="http://www.w3.org/1999/xlink" x="0px" y="0px"
	 viewBox="0 0 48 48" enable-background="new 0 0 48 48" xml:space="preserve">
<path fill="#2196F3" d="M42,37c0,2.8-2.2,5-5,5H11c-2.8,0-5-2.2-5-5V11c0-2.8,2.2-5,5-5h26c2.8,0,5,2.2,5,5V37z"/>
<path fill="#1976D2" d="M34.1,17H13.9c-1.6,0-2.9,1.3-2.9,2.9v12.2c0,1.6,1.3,2.9,2.9,2.9h20.2c1.6,0,2.9-1.3,2.9-2.9V19.9
	C37,18.3,35.7,17,34.1,17z"/>
<path fill="#ECEFF1" d="M34.1,15H13.9c-1.6,0-2.9,1.3-2.9,2.9v12.2c0,1.6,1.3,2.9,2.9,2.9h20.2c1.6,0,2.9-1.3,2.9-2.9V17.9
	C37,16.3,35.7,15,34.1,15z"/>
<path fill="#90A4AE" d="M11.8,15.9c-0.5,0.5-0.8,1.2-0.8,1.9L24,27l13-9.2c0-0.7-0.3-1.4-0.8-1.9L24,24.6L11.8,15.9z"/>
</svg>
