<?xml version="1.0" encoding="iso-8859-1"?>
<!-- Generator: Adobe Illustrator 19.1.1, SVG Export Plug-In . SVG Version: 6.00 Build 0)  -->
<svg version="1.1" id="Layer_1" xmlns="http://www.w3.org/2000/svg" xmlns:xlink="http://www.w3.org/1999/xlink" x="0px" y="0px"
	 viewBox="0 0 48 48" enable-background="new 0 0 48 48" xml:space="preserve">
<path fill="#78909C" d="M5,32v8c0,1.105,0.895,2,2,2h34c1.105,0,2-0.895,2-2v-8c0-1.105-0.895-2-2-2H7C5.895,30,5,30.895,5,32z"/>
<circle fill="#76FF03" cx="11" cy="36" r="2"/>
<rect x="16" y="35" fill="#455A64" width="22" height="2"/>
<path fill="#BBDEFB" d="M34.5,13c-0.187,0-0.371,0.01-0.553,0.028C33.968,12.853,34,12.681,34,12.5c0-2.485-2.015-4.5-4.5-4.5
	c-1.192,0-2.268,0.472-3.073,1.228C25.353,6.741,22.881,5,20,5c-3.866,0-7,3.133-7,7c0,0.405,0.042,0.799,0.108,1.185
	C10.745,13.802,9,15.945,9,18.5c0,2.64,1.862,4.845,4.345,5.376C13.59,23.95,13.843,24,14.108,24h19.735
	c0.066,0,0.128-0.019,0.194-0.023C34.19,23.989,34.343,24,34.5,24c3.037,0,5.5-2.463,5.5-5.5C40,15.463,37.537,13,34.5,13z
	 M26.168,15.5h-0.112c0.015-0.026,0.032-0.052,0.047-0.078C26.126,15.448,26.145,15.475,26.168,15.5z"/>
</svg>
