<?xml version="1.0" encoding="iso-8859-1"?>
<!-- Generator: Adobe Illustrator 21.0.2, SVG Export Plug-In . SVG Version: 6.00 Build 0)  -->
<svg version="1.1" id="Layer_1" xmlns="http://www.w3.org/2000/svg" xmlns:xlink="http://www.w3.org/1999/xlink" x="0px" y="0px"
	 viewBox="0 0 48 48" style="enable-background:new 0 0 48 48;" xml:space="preserve">
<g id="surface1_121_">
	<path style="fill:#E91E63;" d="M24,4v20L14,6.681L24,4z"/>
	<path style="fill:#FF5722;" d="M34,6.681L41.319,14L24,24L34,6.681z"/>
	<path style="fill:#F44336;" d="M24,4l10,2.681L24,24V4z"/>
	<path style="fill:#8BC34A;" d="M24,44V24l10,17.319L24,44z"/>
	<path style="fill:#03A9F4;" d="M14,41.319L6.681,34L24,24L14,41.319z"/>
	<path style="fill:#4CAF50;" d="M24,44l-10-2.681L24,24V44z"/>
	<path style="fill:#FF9800;" d="M44,24H24l17.319-10L44,24z"/>
	<path style="fill:#FFEB3B;" d="M41.319,34L34,41.319L24,24L41.319,34z"/>
	<path style="fill:#FFC107;" d="M44,24l-2.681,10L24,24H44z"/>
	<path style="fill:#3F51B5;" d="M4,24h20L6.681,34L4,24z"/>
	<path style="fill:#9C27B0;" d="M6.681,14L14,6.681L24,24L6.681,14z"/>
	<path style="fill:#673AB7;" d="M4,24l2.681-10L24,24H4z"/>
</g>
</svg>
