<?xml version="1.0" encoding="utf-8"?>
<!-- Generator: Adobe Illustrator 21.0.2, SVG Export Plug-In . SVG Version: 6.00 Build 0)  -->
<svg xmlns="http://www.w3.org/2000/svg" xmlns:xlink="http://www.w3.org/1999/xlink" version="1.1" id="Layer_1" x="0px" y="0px" viewBox="0 0 48 48" style="enable-background:new 0 0 48 48;" xml:space="preserve">
<path style="fill:#FF8F00;" d="M39,39.1H9c-1.7,0-3-1.3-3-3V9c0-1.7,1.3-3,3-3h30c1.7,0,3,1.3,3,3v27.1C42,37.7,40.7,39.1,39,39.1z"/>
<path style="fill:#DD2C00;" d="M39,42H9c-1.7,0-3-1.3-3-3V14c0-1.7,1.3-3,3-3h30c1.7,0,3,1.3,3,3v25C42,40.7,40.7,42,39,42z"/>
<circle style="fill:#B71C1C;" cx="15" cy="17" r="2"/>
<circle style="fill:#B71C1C;" cx="33" cy="17" r="2"/>
<path style="fill:#FFFFFF;" d="M24,27c-5.5,0-10-4.5-10-10c0-0.6,0.4-1,1-1s1,0.4,1,1c0,4.4,3.6,8,8,8s8-3.6,8-8c0-0.6,0.4-1,1-1  s1,0.4,1,1C34,22.5,29.5,27,24,27z"/>
</svg>
