<?xml version="1.0" encoding="iso-8859-1"?>
<!-- Generator: Adobe Illustrator 19.1.1, SVG Export Plug-In . SVG Version: 6.00 Build 0)  -->
<svg version="1.1"  xmlns="http://www.w3.org/2000/svg" xmlns:xlink="http://www.w3.org/1999/xlink" x="0px" y="0px"
	 viewBox="0 0 48 48" style="enable-background:new 0 0 48 48;" xml:space="preserve">
<g>
	<circle style="fill:#EEEEEE;" cx="24" cy="24" r="20"/>
</g>
<polygon style="fill:#D84315;" points="26.889,27.593 20.407,21.111 32.239,12.16 35.84,15.761 "/>
<path style="fill:#90A4AE;" d="M22.495,23.199c-0.467,0.467-0.937,0.937-1.409,1.409c-2.31,2.31-6.999,7.131-6.999,7.131L13,35
	l3.261-1.087c0,0,4.821-4.689,7.131-7c0.472-0.472,0.942-0.942,1.409-1.409L22.495,23.199z"/>
<path style="fill:#FF5722;" d="M16,21.111l1.018-1.018c1.407-1.407,3.686-1.407,5.093,0l5.908,5.797
	c1.406,1.407,1.406,3.685,0,5.092L27,32L16,21.111z M30.143,10l-1.309,1.309c-0.723,0.723-0.723,1.895,0,2.619l5.237,5.237
	c0.723,0.723,1.896,0.723,2.619,0L38,17.856L30.143,10z"/>
<rect x="22.086" y="-3.577" transform="matrix(0.7071 -0.7071 0.7071 0.7071 -9.9159 24.0602)" style="fill:#37474F;" width="4" height="55.154"/>
</svg>
